# Made in Blockbench 5.1.6
mtllib chips.mtl

o plane
v 0.1139325 0.203125 0.401041875
v 0.1139325 0.203125 -0.401041875
v -0.1139325 0.203125 0.401041875
v -0.1139325 0.203125 -0.401041875
v 0.219726875 0.109375 0.3023725
v -0.21972625 0.109375 0.3023725
v 0.2734375 0.046875 0.19351875
v -0.2734375 0.046875 0.19351875
v 0.3125 0.015625 0.072569375
v -0.3125 0.015625 0.072569375
v 0.3125 0.015625 -0.072569375
v -0.3125 0.015625 -0.072569375
v 0.2734375 0.046875 -0.19351875
v -0.2734375 0.046875 -0.19351875
v 0.219726875 0.109375 -0.3023725
v -0.21972625 0.109375 -0.3023725
v 0.060064375 0.234375 0.430208125
v -0.060064375 0.234375 0.430208125
v 0.060064375 0.234375 -0.430208125
v -0.060064375 0.234375 -0.430208125
v 0.169270625 0.09375 -0.072569375
v 0.169270625 0.09375 0.072569375
v -0.169270625 0.09375 -0.072569375
v -0.169270625 0.09375 0.072569375
v 0.148111875 0.115384375 0.19351875
v -0.148111875 0.115384375 0.19351875
v 0.105794375 0.15865375 0.3023725
v -0.105794375 0.15865375 0.3023725
v 0.148111875 0.115384375 -0.19351875
v -0.148111875 0.115384375 -0.19351875
v 0.105794375 0.15865375 -0.3023725
v -0.105794375 0.15865375 -0.3023725
v 0.1139325 0.1875 0.401041875
v 0.1139325 0.1875 -0.401041875
v -0.1139325 0.1875 0.401041875
v -0.1139325 0.1875 -0.401041875
v 0.219726875 0.09375 0.3023725
v -0.21972625 0.09375 0.3023725
v 0.2734375 0.03125 0.19351875
v -0.2734375 0.03125 0.19351875
v 0.3125 0 0.072569375
v -0.3125 0 0.072569375
v 0.3125 0 -0.072569375
v -0.3125 0 -0.072569375
v 0.2734375 0.03125 -0.19351875
v -0.2734375 0.03125 -0.19351875
v 0.219726875 0.09375 -0.3023725
v -0.21972625 0.09375 -0.3023725
v 0.060064375 0.21875 0.430208125
v -0.060064375 0.21875 0.430208125
v 0.060064375 0.21875 -0.430208125
v -0.060064375 0.21875 -0.430208125
v 0.169270625 0.078125 -0.072569375
v 0.169270625 0.078125 0.072569375
v -0.169270625 0.078125 -0.072569375
v -0.169270625 0.078125 0.072569375
v 0.148111875 0.099759375 0.19351875
v -0.148111875 0.099759375 0.19351875
v 0.105794375 0.14302875 0.3023725
v -0.105794375 0.14302875 0.3023725
v 0.148111875 0.099759375 -0.19351875
v -0.148111875 0.099759375 -0.19351875
v 0.105794375 0.14302875 -0.3023725
v -0.105794375 0.14302875 -0.3023725
v 0.052896875 0.173798125 0.3023725
v -0.052896875 0.173798125 0.3023725
v -0.027428125 0.240625 0.4375
v 0.027428125 0.240625 0.4375
v 0.07405625 0.1391825 0.19351875
v -0.07405625 0.1391825 0.19351875
v 0.084635625 0.121875 0.072569375
v -0.084635625 0.121875 0.072569375
v 0.084635625 0.121875 -0.072569375
v -0.084635625 0.121875 -0.072569375
v 0.07405625 0.1391825 -0.19351875
v -0.07405625 0.1391825 -0.19351875
v 0.052896875 0.173798125 -0.3023725
v -0.052896875 0.173798125 -0.3023725
v 0.027428125 0.240625 -0.4375
v -0.027428125 0.240625 -0.4375
v -0.027428125 0.228125 0.4375
v 0.027428125 0.228125 0.4375
v -0.07405625 0.1266825 0.19351875
v 0.07405625 0.1266825 0.19351875
v -0.052896875 0.161298125 0.3023725
v 0.052896875 0.161298125 0.3023725
v -0.084635625 0.109375 0.072569375
v 0.084635625 0.109375 0.072569375
v -0.084635625 0.109375 -0.072569375
v 0.084635625 0.109375 -0.072569375
v -0.07405625 0.1266825 -0.19351875
v 0.07405625 0.1266825 -0.19351875
v -0.052896875 0.161298125 -0.3023725
v 0.052896875 0.161298125 -0.3023725
v -0.027428125 0.228125 -0.4375
v 0.027428125 0.228125 -0.4375
vt 0.5861772265624999 0.8696688924478578
vt 0.6716261328124999 0.8696689294069203
vt 0.7059236328124997 0.9655457049478098
vt 0.6655225390624999 0.9436709940103207
vt 0.5861772265624999 0.41611014244808486
vt 0.6716261328124999 0.41611017940714734
vt 0.6398880078125 0.49775045945507523
vt 0.5458937890625 0.49775040807304416
vt 0.5458937890625 0.49775040807304416
vt 0.6398880078125 0.49775045945507523
vt 0.6240189453125 0.5884624744792487
vt 0.5165969140624999 0.5884624158854987
vt 0.5165969140624999 0.5884624158854987
vt 0.6240189453125 0.5884624744792487
vt 0.6240189453125 0.697316536979194
vt 0.5165969140624999 0.6973164783854442
vt 0.5165969140624999 0.6973164783854442
vt 0.6240189453125 0.697316536979194
vt 0.6398880078125 0.78802858445493
vt 0.5458937890625 0.7880285330728988
vt 0.5458937890625 0.7880285330728988
vt 0.6398880078125 0.78802858445493
vt 0.6716261328124999 0.8696689294069203
vt 0.5861772265624999 0.8696688924478578
vt 0.9853469140625 0.6973164783854442
vt 0.8779248828125 0.697316536979194
vt 0.8779248828125 0.5884624744792487
vt 0.9853469140625 0.5884624158854987
vt 0.8144486328124999 0.6973165580729441
vt 0.6874951953124999 0.6973165580729441
vt 0.6874951953124999 0.5884624955729987
vt 0.8144486328124999 0.5884624955729987
vt 0.9853469140625 0.5884624158854987
vt 0.8779248828125 0.5884624744792487
vt 0.8620558203125002 0.49775045945507523
vt 0.9560500390625 0.49775040807304416
vt 0.8144486328124999 0.5884624955729987
vt 0.6874951953124999 0.5884624955729987
vt 0.6954297265625 0.49775047730366895
vt 0.8065141015624997 0.49775047730366895
vt 0.9560500390625 0.49775040807304416
vt 0.8620558203125002 0.49775045945507523
vt 0.8303176953125 0.41611017940714734
vt 0.9157670703125 0.41611014244808486
vt 0.8065141015624997 0.49775047730366895
vt 0.6954297265625 0.49775047730366895
vt 0.7112992578124999 0.4161101907654283
vt 0.7906445703124998 0.4161101907654283
vt 0.9157670703125 0.41611014244808486
vt 0.8303176953125 0.41611017940714734
vt 0.7960201953124999 0.320233517448133
vt 0.8364212890624999 0.34210818151062194
vt 0.9560500390625 0.7880285330728988
vt 0.8620558203125002 0.78802858445493
vt 0.8779248828125 0.697316536979194
vt 0.9853469140625 0.6973164783854442
vt 0.8065141015624997 0.7880286023035237
vt 0.6954297265625 0.7880286023035237
vt 0.6874951953124999 0.6973165580729441
vt 0.8144486328124999 0.6973165580729441
vt 0.9157670703125 0.8696688924478578
vt 0.8303176953125 0.8696689294069203
vt 0.8620558203125002 0.78802858445493
vt 0.9560500390625 0.7880285330728988
vt 0.7906445703124998 0.8696689407652014
vt 0.7112992578124999 0.8696689407652014
vt 0.6954297265625 0.7880286023035237
vt 0.8065141015624997 0.7880286023035237
vt 0.6655225390624999 0.34210818151062194
vt 0.7059236328124997 0.320233517448133
vt 0.6716261328124999 0.41611017940714734
vt 0.5861772265624999 0.41611014244808486
vt 0.7906445703124998 0.4161101907654283
vt 0.7112992578124999 0.4161101907654283
vt 0.7304008203125001 0.31476461588563565
vt 0.7715430078124998 0.31476461588563565
vt 0.8364212890624999 0.9436709940103207
vt 0.7960201953124999 0.9655457049478098
vt 0.8303176953125 0.8696689294069203
vt 0.9157670703125 0.8696688924478578
vt 0.7715430078124998 0.971014615885307
vt 0.7304008203125001 0.971014615885307
vt 0.7112992578124999 0.8696689407652014
vt 0.7906445703124998 0.8696689407652014
vt 0.20558532260758264 0.32070108671896624
vt 0.17128782260758274 0.4165777486779808
vt 0.08583891635758277 0.41657771171891833
vt 0.16518422885758288 0.3425757507814553
vt 0.13954969760758296 0.7884961537257635
vt 0.17128782260758274 0.8701364986777539
vt 0.08583891635758277 0.8701364617186914
vt 0.04555547885758289 0.7884961023437322
vt 0.12368063510758287 0.6977841062500276
vt 0.13954969760758296 0.7884961537257635
vt 0.04555547885758289 0.7884961023437322
vt 0.01625860385758271 0.6977840476562776
vt 0.12368063510758287 0.5889300437500821
vt 0.12368063510758287 0.6977841062500276
vt 0.01625860385758271 0.6977840476562776
vt 0.01625860385758271 0.5889299851563321
vt 0.13954969760758296 0.4982180287259086
vt 0.12368063510758287 0.5889300437500821
vt 0.01625860385758271 0.5889299851563321
vt 0.04555547885758289 0.4982179773438774
vt 0.17128782260758274 0.4165777486779808
vt 0.13954969760758296 0.4982180287259086
vt 0.04555547885758289 0.4982179773438774
vt 0.08583891635758277 0.41657771171891833
vt 0.3775865726075828 0.6977841062500276
vt 0.3775865726075828 0.5889300437500821
vt 0.4850086038575828 0.5889299851563321
vt 0.4850086038575828 0.6977840476562776
vt 0.1871568851075829 0.6977841296875277
vt 0.1871568851075829 0.5889300671875821
vt 0.31411032260758287 0.5889300671875821
vt 0.31411032260758287 0.6977841296875277
vt 0.36171751010758274 0.7884961537257635
vt 0.3775865726075828 0.6977841062500276
vt 0.4850086038575828 0.6977840476562776
vt 0.4557117288575827 0.7884961023437322
vt 0.19509141635758273 0.7884961739181073
vt 0.1871568851075829 0.6977841296875277
vt 0.31411032260758287 0.6977841296875277
vt 0.30617579135758277 0.7884961739181073
vt 0.3299793851075829 0.8701364986777539
vt 0.36171751010758274 0.7884961537257635
vt 0.4557117288575827 0.7884961023437322
vt 0.4154287601075828 0.8701364617186914
vt 0.21096094760758285 0.8701365123797852
vt 0.19509141635758273 0.7884961739181073
vt 0.30617579135758277 0.7884961739181073
vt 0.29030626010758276 0.8701365123797852
vt 0.2956818851075827 0.9660132742186435
vt 0.3299793851075829 0.8701364986777539
vt 0.4154287601075828 0.8701364617186914
vt 0.33608297885758287 0.9441385632811544
vt 0.3775865726075828 0.5889300437500821
vt 0.36171751010758274 0.4982180287259086
vt 0.4557117288575827 0.4982179773438774
vt 0.4850086038575828 0.5889299851563321
vt 0.1871568851075829 0.5889300671875821
vt 0.19509141635758273 0.4982180489182524
vt 0.30617579135758277 0.4982180489182524
vt 0.31411032260758287 0.5889300671875821
vt 0.36171751010758274 0.4982180287259086
vt 0.3299793851075829 0.4165777486779808
vt 0.4154287601075828 0.41657771171891833
vt 0.4557117288575827 0.4982179773438774
vt 0.19509141635758273 0.4982180489182524
vt 0.21096094760758285 0.416577762380012
vt 0.29030626010758276 0.416577762380012
vt 0.30617579135758277 0.4982180489182524
vt 0.17128782260758274 0.8701364986777539
vt 0.20558532260758264 0.9660132742186435
vt 0.16518422885758288 0.9441385632811544
vt 0.08583891635758277 0.8701364617186914
vt 0.23006251010758294 0.9714821874998907
vt 0.21096094760758285 0.8701365123797852
vt 0.29030626010758276 0.8701365123797852
vt 0.2712046976075828 0.9714821874998907
vt 0.3299793851075829 0.4165777486779808
vt 0.2956818851075827 0.32070108671896624
vt 0.33608297885758287 0.3425757507814553
vt 0.4154287601075828 0.41657771171891833
vt 0.21096094760758285 0.416577762380012
vt 0.23006251010758294 0.315232187500219
vt 0.2712046976075828 0.315232187500219
vt 0.29030626010758276 0.416577762380012
vt 0.23024917463370864 0.26806750000005497
vt 0.23024917463370864 0.25869250000005506
vt 0.2713913621337086 0.25869250000005506
vt 0.2713913621337086 0.26806750000005497
vt 0.20577198713370842 0.251661250000055
vt 0.20577198713370842 0.263380000000055
vt 0.1653708933837086 0.23994250000005501
vt 0.1653708933837086 0.2282237500000549
vt 0.33626964338370846 0.2282237500000549
vt 0.33626964338370846 0.23994250000005501
vt 0.29586854963370857 0.263380000000055
vt 0.29586854963370857 0.251661250000055
vt 0.33626964338370846 0.23994250000005501
vt 0.33626964338370846 0.2282237500000549
vt 0.4156154246337085 0.15791125000005468
vt 0.4156154246337085 0.16963000000005468
vt 0.022902651196208698 0.11704908482148335
vt 0.022902651196208698 0.10533033482148357
vt 0.10454296369620866 0.05845533482148335
vt 0.10454296369620866 0.07017408482148335
vt 0.10454296369620866 0.07017408482148335
vt 0.10454296369620866 0.05845533482148335
vt 0.19525499494620865 0.03501783482148324
vt 0.19525499494620865 0.04673658482148357
vt 0.19525499494620865 0.04673658482148357
vt 0.19525499494620865 0.03501783482148324
vt 0.3041090574462086 0.03501783482148324
vt 0.3041090574462086 0.04673658482148357
vt 0.3041090574462086 0.04673658482148357
vt 0.3041090574462086 0.03501783482148324
vt 0.39482108869620863 0.05845533482148335
vt 0.39482108869620863 0.07017408482148335
vt 0.39482108869620863 0.07017408482148335
vt 0.39482108869620863 0.05845533482148335
vt 0.4764614011962085 0.10533033482148357
vt 0.4764614011962085 0.11704908482148335
vt 0.5858575976562502 0.16986378580734596
vt 0.5858575976562502 0.15814503580734596
vt 0.6652033789062498 0.22845753580734596
vt 0.6652033789062498 0.24017628580734574
vt 0.6652033789062498 0.24017628580734574
vt 0.6652033789062498 0.22845753580734596
vt 0.7056044726562499 0.2518950358073455
vt 0.7056044726562499 0.26361378580734574
vt 0.7300816601562499 0.26830128580734636
vt 0.7300816601562499 0.25892628580734556
vt 0.7712238476562496 0.25892628580734556
vt 0.7712238476562496 0.26830128580734636
vt 0.7957010351562496 0.26361378580734574
vt 0.7957010351562496 0.2518950358073455
vt 0.8361021289062497 0.22845753580734596
vt 0.8361021289062497 0.24017628580734574
vt 0.8361021289062497 0.24017628580734574
vt 0.8361021289062497 0.22845753580734596
vt 0.9154474414062495 0.15814503580734596
vt 0.9154474414062495 0.16986378580734596
vt 0.52273349609375 0.11728287062877651
vt 0.52273349609375 0.10556412062877651
vt 0.60437380859375 0.058689120628776514
vt 0.60437380859375 0.07040787062877674
vt 0.60437380859375 0.07040787062877674
vt 0.60437380859375 0.058689120628776514
vt 0.6950858398437497 0.035251620628776736
vt 0.6950858398437497 0.046970370628776514
vt 0.6950858398437497 0.046970370628776514
vt 0.6950858398437497 0.035251620628776736
vt 0.8039399023437498 0.035251620628776736
vt 0.8039399023437498 0.046970370628776514
vt 0.8039399023437498 0.046970370628776514
vt 0.8039399023437498 0.035251620628776736
vt 0.8946519335937495 0.058689120628776514
vt 0.8946519335937495 0.07040787062877674
vt 0.8946519335937495 0.07040787062877674
vt 0.8946519335937495 0.058689120628776514
vt 0.9762922460937498 0.10556412062877651
vt 0.9762922460937498 0.11728287062877651
vt 0.08602558088370868 0.16963000000005468
vt 0.08602558088370868 0.15791125000005468
vt 0.1653708933837086 0.2282237500000549
vt 0.1653708933837086 0.23994250000005501
vt 0.7304008203125001 0.31476461588563565
vt 0.7112992578124999 0.4161101907654283
vt 0.6716261328124999 0.41611017940714734
vt 0.7059236328124997 0.320233517448133
vt 0.7906445703124998 0.4161101907654283
vt 0.7715430078124998 0.31476461588563565
vt 0.7960201953124999 0.320233517448133
vt 0.8303176953125 0.41611017940714734
vt 0.7112992578124999 0.4161101907654283
vt 0.6954297265625 0.49775047730366895
vt 0.6398880078125 0.49775045945507523
vt 0.6716261328124999 0.41611017940714734
vt 0.8065141015624997 0.49775047730366895
vt 0.7906445703124998 0.4161101907654283
vt 0.8303176953125 0.41611017940714734
vt 0.8620558203125002 0.49775045945507523
vt 0.6954297265625 0.49775047730366895
vt 0.6874951953124999 0.5884624955729987
vt 0.6240189453125 0.5884624744792487
vt 0.6398880078125 0.49775045945507523
vt 0.8144486328124999 0.5884624955729987
vt 0.8065141015624997 0.49775047730366895
vt 0.8620558203125002 0.49775045945507523
vt 0.8779248828125 0.5884624744792487
vt 0.6874951953124999 0.5884624955729987
vt 0.6874951953124999 0.6973165580729441
vt 0.6240189453125 0.697316536979194
vt 0.6240189453125 0.5884624744792487
vt 0.8144486328124999 0.6973165580729441
vt 0.8144486328124999 0.5884624955729987
vt 0.8779248828125 0.5884624744792487
vt 0.8779248828125 0.697316536979194
vt 0.6874951953124999 0.6973165580729441
vt 0.6954297265625 0.7880286023035237
vt 0.6398880078125 0.78802858445493
vt 0.6240189453125 0.697316536979194
vt 0.8065141015624997 0.7880286023035237
vt 0.8144486328124999 0.6973165580729441
vt 0.8779248828125 0.697316536979194
vt 0.8620558203125002 0.78802858445493
vt 0.6954297265625 0.7880286023035237
vt 0.7112992578124999 0.8696689407652014
vt 0.6716261328124999 0.8696689294069203
vt 0.6398880078125 0.78802858445493
vt 0.7906445703124998 0.8696689407652014
vt 0.8065141015624997 0.7880286023035237
vt 0.8620558203125002 0.78802858445493
vt 0.8303176953125 0.8696689294069203
vt 0.7112992578124999 0.8696689407652014
vt 0.7304008203125001 0.971014615885307
vt 0.7059236328124997 0.9655457049478098
vt 0.6716261328124999 0.8696689294069203
vt 0.7715430078124998 0.971014615885307
vt 0.7906445703124998 0.8696689407652014
vt 0.8303176953125 0.8696689294069203
vt 0.7960201953124999 0.9655457049478098
vt 0.23024917463370864 0.25869250000005506
vt 0.23024917463370864 0.26806750000005497
vt 0.20577198713370842 0.263380000000055
vt 0.20577198713370842 0.251661250000055
vt 0.2713913621337086 0.26806750000005497
vt 0.2713913621337086 0.25869250000005506
vt 0.29586854963370857 0.251661250000055
vt 0.29586854963370857 0.263380000000055
vt 0.19509141635758273 0.7884961739181073
vt 0.21096094760758285 0.8701365123797852
vt 0.17128782260758274 0.8701364986777539
vt 0.13954969760758296 0.7884961537257635
vt 0.29030626010758276 0.8701365123797852
vt 0.30617579135758277 0.7884961739181073
vt 0.36171751010758274 0.7884961537257635
vt 0.3299793851075829 0.8701364986777539
vt 0.1871568851075829 0.6977841296875277
vt 0.19509141635758273 0.7884961739181073
vt 0.13954969760758296 0.7884961537257635
vt 0.12368063510758287 0.6977841062500276
vt 0.30617579135758277 0.7884961739181073
vt 0.31411032260758287 0.6977841296875277
vt 0.3775865726075828 0.6977841062500276
vt 0.36171751010758274 0.7884961537257635
vt 0.1871568851075829 0.5889300671875821
vt 0.1871568851075829 0.6977841296875277
vt 0.12368063510758287 0.6977841062500276
vt 0.12368063510758287 0.5889300437500821
vt 0.31411032260758287 0.6977841296875277
vt 0.31411032260758287 0.5889300671875821
vt 0.3775865726075828 0.5889300437500821
vt 0.3775865726075828 0.6977841062500276
vt 0.19509141635758273 0.4982180489182524
vt 0.1871568851075829 0.5889300671875821
vt 0.12368063510758287 0.5889300437500821
vt 0.13954969760758296 0.4982180287259086
vt 0.31411032260758287 0.5889300671875821
vt 0.30617579135758277 0.4982180489182524
vt 0.36171751010758274 0.4982180287259086
vt 0.3775865726075828 0.5889300437500821
vt 0.21096094760758285 0.416577762380012
vt 0.19509141635758273 0.4982180489182524
vt 0.13954969760758296 0.4982180287259086
vt 0.17128782260758274 0.4165777486779808
vt 0.30617579135758277 0.4982180489182524
vt 0.29030626010758276 0.416577762380012
vt 0.3299793851075829 0.4165777486779808
vt 0.36171751010758274 0.4982180287259086
vt 0.23006251010758294 0.315232187500219
vt 0.21096094760758285 0.416577762380012
vt 0.17128782260758274 0.4165777486779808
vt 0.20558532260758264 0.32070108671896624
vt 0.29030626010758276 0.416577762380012
vt 0.2712046976075828 0.315232187500219
vt 0.2956818851075827 0.32070108671896624
vt 0.3299793851075829 0.4165777486779808
vt 0.7300816601562499 0.25892628580734556
vt 0.7300816601562499 0.26830128580734636
vt 0.7056044726562499 0.26361378580734574
vt 0.7056044726562499 0.2518950358073455
vt 0.7712238476562496 0.26830128580734636
vt 0.7712238476562496 0.25892628580734556
vt 0.7957010351562496 0.2518950358073455
vt 0.7957010351562496 0.26361378580734574
vt 0.21096094760758285 0.8701365123797852
vt 0.23006251010758294 0.9714821874998907
vt 0.20558532260758264 0.9660132742186435
vt 0.17128782260758274 0.8701364986777539
vt 0.2712046976075828 0.9714821874998907
vt 0.29030626010758276 0.8701365123797852
vt 0.3299793851075829 0.8701364986777539
vt 0.2956818851075827 0.9660132742186435
vn -0.368381997360069 0.8516947299896549 0.3727073797617307
vn -0.38847143450152116 0.8981412660974151 -0.20599080248705925
vn -0.47838665726234436 0.8751226647895138 -0.07284591769660657
vn -0.4788515938786971 0.877895865715195 0
vn -0.4775717166189749 0.875549420659365 0.07306481690017588
vn -0.4734644207548068 0.8661183151409445 0.16022018117805015
vn 0.4788515938786971 0.877895865715195 0
vn 0 1 0
vn 0.4775717166189749 0.875549420659365 -0.07306481690017588
vn 0 0.989916216565636 -0.1416541004714554
vn 0.4734644207548068 0.8661183151409445 -0.16022018117805015
vn 0 0.9529754945432776 -0.3030473672546849
vn 0.3683801515080162 0.8516951345496191 -0.3727082797033593
vn 0.47838665726234436 0.8751226647895138 0.07284591769660657
vn 0 0.9899162165656359 0.14165410047145538
vn 0.3884695587611106 0.8981418563488365 0.20599176631655453
vn 0 0.9529754945432776 0.3030473672546849
vn -0.2788353834619111 0.8666970111424352 -0.41362678806675307
vn 0 0.8963738789416622 -0.44329884857856167
vn 0.2788353834619111 0.8666970111424352 0.41362678806675307
vn 0 0.8963738789416621 0.4432988485785616
vn 0.368381997360069 -0.8516947299896549 -0.3727073797617307
vn 0.38847143450152116 -0.8981412660974151 0.20599080248705925
vn 0.47838665726234436 -0.8751226647895138 0.07284591769660657
vn 0.4788515938786971 -0.877895865715195 0
vn 0.4775717166189749 -0.8755494206593648 -0.07306481690017587
vn 0.4734644207548069 -0.8661183151409445 -0.1602201811780501
vn -0.4788515938786971 -0.877895865715195 0
vn 0 -1 0
vn -0.4775717166189749 -0.8755494206593648 0.07306481690017587
vn 0 -0.9899162165656358 0.1416541004714555
vn -0.4734644207548069 -0.8661183151409445 0.1602201811780501
vn 0 -0.9529754945432776 0.3030473672546846
vn -0.3683801515080162 -0.851695134549619 0.3727082797033593
vn -0.47838665726234436 -0.8751226647895138 -0.07284591769660657
vn 0 -0.9899162165656359 -0.14165410047145552
vn -0.3884695587611106 -0.8981418563488365 -0.2059917663165545
vn 0 -0.9529754945432776 -0.3030473672546846
vn 0.2788353834619112 -0.8666970111424352 0.413626788066753
vn 0 -0.896373878941662 0.4432988485785616
vn -0.2788353834619112 -0.8666970111424352 -0.413626788066753
vn 0 -0.8963738789416622 -0.44329884857856167
vn 0 0 1
vn -0.4761276738313764 0 0.8793761642277567
vn 0.4761276738313764 0 0.8793761642277567
vn 0.6820520595249673 0 0.7313036223742848
vn 0.8967750204464194 0 0.44248679381798955
vn 0.9516014996787164 0 0.307334647915294
vn 1 0 0
vn 0.9516014996787164 0 -0.307334647915294
vn 0.8967750204464194 0 -0.44248679381798955
vn 0.6820520595249673 0 -0.7313036223742848
vn 0.4761276738313764 0 -0.8793761642277567
vn 0 0 -1
vn -0.4761276738313764 0 -0.8793761642277567
vn -0.6820542144451532 0 -0.731301612576921
vn -0.8967729772741598 0 -0.44249093463125255
vn -0.9516014996787164 0 -0.307334647915294
vn -1 0 0
vn -0.9516014996787164 0 0.307334647915294
vn -0.8967729772741598 0 0.44249093463125255
vn -0.6820542144451532 0 0.731301612576921
vn -0.2534410647277941 0.8852394847221161 -0.39002394977560645
vn 0.07606248215379018 0.8993995591168984 -0.4304589781488279
vn -0.29727464352832017 0.9250669757866206 -0.23638713294954647
vn 0.266880942709479 0.9321833794378883 -0.24455819249875438
vn -0.31352275525852974 0.9434666094686459 -0.10758363608299235
vn 0.3041284453679604 0.9463948148016986 -0.10882436875317232
vn -0.3153530525072826 0.9489744212961376 0
vn 0.3153530525072826 0.9489744212961376 0
vn -0.3041284453679604 0.9463948148016986 0.10882436875317232
vn 0.31352275525852974 0.9434666094686459 0.10758363608299235
vn -0.266880942709479 0.9321833794378883 0.24455819249875438
vn 0.29727464352832017 0.9250669757866206 0.23638713294954647
vn -0.07606248215379018 0.8993995591168984 0.4304589781488279
vn 0.2534410647277941 0.8852394847221161 0.39002394977560645
vn -0.2180523542236965 0 0.9759370731853073
vn 0.2180523542236965 0 0.9759370731853073
vn 0.31764354082456014 -0.9197112216902431 0.23072461868963295
vn -0.33280097642375983 -0.9154132111213611 0.2264114904236772
vn 0.3398197170530393 -0.9347191878240724 0.10403172504336741
vn -0.34451951746056425 -0.9330690995287955 0.10338451331443652
vn 0.34637558340694186 -0.9380959200526888 0
vn -0.34637558340694186 -0.9380959200526888 0
vn 0.34451951746056425 -0.9330690995287955 -0.10338451331443652
vn -0.3398197170530393 -0.9347191878240724 -0.10403172504336741
vn 0.33280097642375983 -0.9154132111213611 -0.2264114904236772
vn -0.31764354082456014 -0.9197112216902431 -0.23072461868963295
vn 0.3024808636777906 -0.8758089144481376 -0.3761170994277084
vn -0.1653527565371207 -0.8960641111813341 -0.41198006572937657
vn 0.2180523542236965 0 -0.9759370731853073
vn -0.2180523542236965 0 -0.9759370731853073
vn 0.1653527565371207 -0.8960641111813341 0.41198006572937657
vn -0.3024808636777906 -0.8758089144481376 0.3761170994277084
usemtl m_8ad23856-3fbc-e89b-ae81-b5c04f9eccce
f 16/1/1 32/2/1 20/3/1 4/4/1
f 6/5/2 28/6/2 26/7/2 8/8/2
f 8/9/3 26/10/3 24/11/3 10/12/3
f 10/13/4 24/14/4 23/15/4 12/16/4
f 12/17/5 23/18/5 30/19/5 14/20/5
f 14/21/6 30/22/6 32/23/6 16/24/6
f 11/25/7 21/26/7 22/27/7 9/28/7
f 73/29/8 74/30/8 72/31/8 71/32/8
f 9/33/9 22/34/9 25/35/9 7/36/9
f 71/37/10 72/38/10 70/39/10 69/40/10
f 7/41/11 25/42/11 27/43/11 5/44/11
f 69/45/12 70/46/12 66/47/12 65/48/12
f 5/49/13 27/50/13 17/51/13 1/52/13
f 13/53/14 29/54/14 21/55/14 11/56/14
f 75/57/15 76/58/15 74/59/15 73/60/15
f 15/61/16 31/62/16 29/63/16 13/64/16
f 77/65/17 78/66/17 76/67/17 75/68/17
f 3/69/18 18/70/18 28/71/18 6/72/18
f 65/73/19 66/74/19 67/75/19 68/76/19
f 2/77/20 19/78/20 31/79/20 15/80/20
f 79/81/21 80/82/21 78/83/21 77/84/21
f 52/85/22 64/86/22 48/87/22 36/88/22
f 58/89/23 60/90/23 38/91/23 40/92/23
f 56/93/24 58/94/24 40/95/24 42/96/24
f 55/97/25 56/98/25 42/99/25 44/100/25
f 62/101/26 55/102/26 44/103/26 46/104/26
f 64/105/27 62/106/27 46/107/27 48/108/27
f 54/109/28 53/110/28 43/111/28 41/112/28
f 87/113/29 89/114/29 90/115/29 88/116/29
f 57/117/30 54/118/30 41/119/30 39/120/30
f 83/121/31 87/122/31 88/123/31 84/124/31
f 59/125/32 57/126/32 39/127/32 37/128/32
f 85/129/33 83/130/33 84/131/33 86/132/33
f 49/133/34 59/134/34 37/135/34 33/136/34
f 53/137/35 61/138/35 45/139/35 43/140/35
f 89/141/36 91/142/36 92/143/36 90/144/36
f 61/145/37 63/146/37 47/147/37 45/148/37
f 91/149/38 93/150/38 94/151/38 92/152/38
f 60/153/39 50/154/39 35/155/39 38/156/39
f 81/157/40 85/158/40 86/159/40 82/160/40
f 63/161/41 51/162/41 34/163/41 47/164/41
f 93/165/42 95/166/42 96/167/42 94/168/42
f 67/169/43 81/170/43 82/171/43 68/172/43
f 50/173/44 18/174/44 3/175/44 35/176/44
f 33/177/45 1/178/45 17/179/45 49/180/45
f 1/181/46 33/182/46 37/183/46 5/184/46
f 5/185/47 37/186/47 39/187/47 7/188/47
f 7/189/48 39/190/48 41/191/48 9/192/48
f 9/193/49 41/194/49 43/195/49 11/196/49
f 11/197/50 43/198/50 45/199/50 13/200/50
f 13/201/51 45/202/51 47/203/51 15/204/51
f 15/205/52 47/206/52 34/207/52 2/208/52
f 2/209/53 34/210/53 51/211/53 19/212/53
f 79/213/54 96/214/54 95/215/54 80/216/54
f 20/217/55 52/218/55 36/219/55 4/220/55
f 4/221/56 36/222/56 48/223/56 16/224/56
f 16/225/57 48/226/57 46/227/57 14/228/57
f 14/229/58 46/230/58 44/231/58 12/232/58
f 12/233/59 44/234/59 42/235/59 10/236/59
f 10/237/60 42/238/60 40/239/60 8/240/60
f 8/241/61 40/242/61 38/243/61 6/244/61
f 6/245/62 38/246/62 35/247/62 3/248/62
f 67/249/63 66/250/63 28/251/63 18/252/63
f 65/253/64 68/254/64 17/255/64 27/256/64
f 66/257/65 70/258/65 26/259/65 28/260/65
f 69/261/66 65/262/66 27/263/66 25/264/66
f 70/265/67 72/266/67 24/267/67 26/268/67
f 71/269/68 69/270/68 25/271/68 22/272/68
f 72/273/69 74/274/69 23/275/69 24/276/69
f 73/277/70 71/278/70 22/279/70 21/280/70
f 74/281/71 76/282/71 30/283/71 23/284/71
f 75/285/72 73/286/72 21/287/72 29/288/72
f 76/289/73 78/290/73 32/291/73 30/292/73
f 77/293/74 75/294/74 29/295/74 31/296/74
f 78/297/75 80/298/75 20/299/75 32/300/75
f 79/301/76 77/302/76 31/303/76 19/304/76
f 81/305/77 67/306/77 18/307/77 50/308/77
f 68/309/78 82/310/78 49/311/78 17/312/78
f 83/313/79 85/314/79 60/315/79 58/316/79
f 86/317/80 84/318/80 57/319/80 59/320/80
f 87/321/81 83/322/81 58/323/81 56/324/81
f 84/325/82 88/326/82 54/327/82 57/328/82
f 89/329/83 87/330/83 56/331/83 55/332/83
f 88/333/84 90/334/84 53/335/84 54/336/84
f 91/337/85 89/338/85 55/339/85 62/340/85
f 90/341/86 92/342/86 61/343/86 53/344/86
f 93/345/87 91/346/87 62/347/87 64/348/87
f 92/349/88 94/350/88 63/351/88 61/352/88
f 95/353/89 93/354/89 64/355/89 52/356/89
f 94/357/90 96/358/90 51/359/90 63/360/90
f 96/361/91 79/362/91 19/363/91 51/364/91
f 80/365/92 95/366/92 52/367/92 20/368/92
f 85/369/93 81/370/93 50/371/93 60/372/93
f 82/373/94 86/374/94 59/375/94 49/376/94